<svg xmlns="http://www.w3.org/2000/svg" width="20" height="20" viewBox="0 0 20 20">
<path d="M8.18866 0C12.7111 0 16.3773 3.66619 16.3773 8.18866C16.3773 10.1898 15.6595 12.0232 14.4674 13.4456L19.7884 18.7666C20.0705 19.0487 20.0705 19.5062 19.7884 19.7884C19.5062 20.0705 19.0487 20.0705 18.7666 19.7884L13.4456 14.4674C12.0232 15.6595 10.1898 16.3773 8.18866 16.3773C3.66619 16.3773 0 12.7111 0 8.18866C0 3.66619 3.66619 0 8.18866 0ZM8.18866 1.44506C4.46427 1.44506 1.44506 4.46427 1.44506 8.18866C1.44506 11.9131 4.46427 14.9323 8.18866 14.9323C11.9131 14.9323 14.9323 11.9131 14.9323 8.18866C14.9323 4.46427 11.9131 1.44506 8.18866 1.44506Z" fill="#666666"/>
</svg>
